<?xml version="1.0" standalone="no"?>
<!DOCTYPE svg PUBLIC "-//W3C//DTD SVG 20010904//EN"
 "http://www.w3.org/TR/2001/REC-SVG-20010904/DTD/svg10.dtd">
<svg version="1.0" xmlns="http://www.w3.org/2000/svg"
 width="16.000000pt" height="16.000000pt" viewBox="0 0 16.000000 16.000000"
 preserveAspectRatio="xMidYMid meet">
<metadata>
Created by potrace 1.11, written by Peter Selinger 2001-2013
</metadata>
<g transform="translate(0.000000,16.000000) scale(0.003119,-0.003119)"
fill="#000000" stroke="none">
<path d="M10 2570 l0 -2560 2560 0 2560 0 0 2560 0 2560 -2560 0 -2560 0 0
-2560z m2718 784 c335 -68 590 -345 634 -691 6 -49 12 -89 13 -90 0 -1 53 -16
115 -32 63 -16 170 -48 237 -71 l122 -41 53 43 c75 62 147 90 240 96 136 8
263 -49 344 -155 105 -138 105 -348 0 -486 -146 -192 -437 -210 -605 -38 -97
100 -139 248 -105 372 6 21 -106 63 -296 113 l-126 33 -27 -87 c-51 -159 -175
-324 -315 -417 -307 -203 -722 -170 -988 80 -107 100 -177 209 -220 342 -12
38 -27 71 -33 73 -17 6 -169 -34 -296 -77 l-110 -37 -1 -99 c0 -114 -22 -185
-78 -258 -146 -192 -437 -210 -605 -38 -240 246 -81 659 259 679 120 7 213
-26 303 -107 l37 -34 138 46 c75 26 181 57 235 71 54 13 101 26 103 29 2 2 9
41 14 85 52 410 382 708 788 711 51 1 128 -6 170 -15z"/>
<path d="M2466 3200 c-243 -44 -430 -208 -512 -450 -27 -78 -27 -282 0 -360
60 -176 177 -314 326 -387 111 -53 173 -68 295 -67 177 0 309 57 441 189 129
129 184 263 184 445 0 53 -7 123 -15 155 -54 212 -233 397 -445 459 -67 20
-207 28 -274 16z m239 -340 c198 -96 243 -362 88 -517 -66 -66 -123 -88 -228
-88 -78 0 -97 4 -141 27 -28 15 -72 50 -97 78 -156 173 -76 446 153 521 48 16
173 4 225 -21z"/>
<path d="M900 2399 c-99 -30 -170 -125 -170 -229 0 -81 32 -141 100 -192 152
-114 369 -3 370 190 0 98 -47 174 -136 221 -32 16 -124 22 -164 10z"/>
<path d="M4100 2399 c-99 -30 -170 -125 -170 -229 0 -81 32 -141 100 -192 152
-114 369 -3 370 190 0 98 -47 174 -136 221 -32 16 -124 22 -164 10z"/>
</g>
</svg>
